<?xml version="1.0" encoding="UTF-8" standalone="no"?>
<svg
   xmlns:dc="http://purl.org/dc/elements/1.1/"
   xmlns:cc="http://creativecommons.org/ns#"
   xmlns:rdf="http://www.w3.org/1999/02/22-rdf-syntax-ns#"
   xmlns:svg="http://www.w3.org/2000/svg"
   xmlns="http://www.w3.org/2000/svg"
   version="1.1"
   width="57.113823"
   height="57.164532"
   id="svg2">
  <defs
     id="defs4" />
  <metadata
     id="metadata7">
    <rdf:RDF>
      <cc:Work
         rdf:about="">
        <dc:format>image/svg+xml</dc:format>
        <dc:type
           rdf:resource="http://purl.org/dc/dcmitype/StillImage" />
        <dc:title></dc:title>
      </cc:Work>
    </rdf:RDF>
  </metadata>
  <g
     transform="translate(-316.64577,-343.76436)"
     id="layer1">
    <g
       transform="matrix(0.70710678,-0.70710678,0.70710678,0.70710678,-162.07942,352.94285)"
       id="g2994"
       style="fill:#be9954;fill-opacity:1">
      <path
         d="m 345,342.375 c -13.80712,0 -25,11.19288 -25,25 0,13.80712 11.19288,25 25,25 13.80712,0 25,-11.19288 25,-25 0,-13.80712 -11.19288,-25 -25,-25 z m 0,3 c 12.15026,0 22,9.84974 22,22 0,12.15026 -9.84974,22 -22,22 -12.15026,0 -22,-9.84974 -22,-22 0,-12.15026 9.84974,-22 22,-22 z"
         id="path2985"
         style="fill:#be9954;fill-opacity:1;stroke:none" />
      <rect
         width="4"
         height="20"
         x="342.96414"
         y="390.82666"
         id="rect2992"
         style="fill:#be9954;fill-opacity:1;stroke:none" />
    </g>
  </g>
</svg>