<?xml version="1.0" encoding="utf-8"?>
<!-- Generator: Adobe Illustrator 18.0.0, SVG Export Plug-In . SVG Version: 6.00 Build 0)  -->
<!DOCTYPE svg PUBLIC "-//W3C//DTD SVG 1.1//EN" "http://www.w3.org/Graphics/SVG/1.1/DTD/svg11.dtd">
<svg version="1.1" id="Layer_1" xmlns="http://www.w3.org/2000/svg" xmlns:xlink="http://www.w3.org/1999/xlink" x="0px" y="0px"
	 viewBox="0 0 29 20" enable-background="new 0 0 29 20" xml:space="preserve">
<g>
	<path fill="#BE9953" d="M25,10.3c0-1.6-0.7-3.2-1.8-4.3c-0.7-0.7-1.5-1.2-2.5-1.2c-1.2,0-1.8,0.5-2.5,1.6c-0.8-1.4-1.8-2.7-3.4-2.7
		c-2,0-2.9,1.4-4.7,5.5c-1.5,3.2-1.8,3.6-3,3.6c-1.7,0-2.5-2-2.5-3.6c0-2.6,1.2-3.7,1.4-3.5c0.1,0.1,0.2,0.7,0.7,1.2
		C7.1,7.2,7.4,7.4,8,7.4c0.8,0,1.4-0.7,1.4-1.6S8.6,4.2,7.4,4.2C5.6,4.2,4,6.4,4,9.1c0,1.8,0.7,3.4,1.7,4.4c0.7,0.7,1.6,1.2,2.6,1.2
		c1.2,0,2-0.7,2.5-1.6c0.7,1.8,1.8,3.2,3.6,3.2c1.8,0,2.5-1.4,4.2-5.3c1.6-3.5,2-4.4,3.2-4.4c1.8,0,2.7,1.7,2.7,3.5
		c0,3-1.6,4.5-1.8,4.3c-0.1-0.1-0.2-0.8-0.7-1.3c-0.3-0.3-0.8-0.5-1.4-0.5c-0.8,0-1.4,0.7-1.4,1.6c0,1,0.8,1.8,2,1.8
		C23.4,16,25,13.3,25,10.3 M16.5,10c-1.8,4-2.1,4.7-3.3,4.7c-1.1,0-1.8-1-2.2-2.1c0.4-0.7,0.9-2,1.6-3.4c1.3-2.8,2-3.6,3.1-3.6
		c1.1,0,1.8,0.7,2.2,1.4C17.5,7.7,17,8.7,16.5,10"/>
</g>
</svg>
